<svg xmlns="http://www.w3.org/2000/svg" viewBox="0 0 500 500"><g id="freepik--Floor--inject-300"><ellipse id="freepik--floor--inject-300" cx="250" cy="333.49" rx="236" ry="136.23" style="fill:#f5f5f5"></ellipse></g><g id="freepik--Device--inject-300"><g id="freepik--Mobile--inject-300"><g id="freepik--mobile--inject-300"><path d="M433.31,372.84,313.63,441.93a12.92,12.92,0,0,1-12.49.24L60.19,303c-3.8-2.19-6.88-7.09-6.88-11s3.08-8.75,6.87-10.95L179.43,212.3a15.25,15.25,0,0,1,13.74,0L433.31,351c3.8,2.19,6.88,7.09,6.88,10.95S437.11,370.65,433.31,372.84Z" style="fill:#83A7DC"></path><path d="M179.43,212.3,60.18,281.14c-3.79,2.2-6.87,7.1-6.87,10.95s3.08,8.76,6.88,11l241,139.13a13.48,13.48,0,0,0,6,1.48V278.09l-114-65.79A15.25,15.25,0,0,0,179.43,212.3Z" style="opacity:0.5"></path><path d="M313.63,441.93l119.68-69.09c3.8-2.19,6.88-7.09,6.88-10.94s-3.08-8.76-6.88-10.95L307.12,278.09V443.65A12.7,12.7,0,0,0,313.63,441.93Z" style="opacity:0.4"></path><path d="M310.78,429.62a13.41,13.41,0,0,1-12.12,0L60.16,291.92c-5.13-3-5.13-7.8,0-10.76L179.42,212.3a15.25,15.25,0,0,1,13.74,0L433.3,351c3.78,2.18,3.78,5.75,0,7.93Z" style="fill:#83A7DC"></path><path d="M310.78,429.62a13.41,13.41,0,0,1-12.12,0L60.16,291.92c-5.13-3-5.13-7.8,0-10.76L179.42,212.3a15.25,15.25,0,0,1,13.74,0L433.3,351c3.78,2.18,3.78,5.75,0,7.93Z" style="opacity:0.30000000000000004"></path><path d="M299.2,415.76a14.45,14.45,0,0,1-13.06,0L80.91,297.27c-3.61-2.08-3.61-5.46,0-7.54L193.1,225a14.51,14.51,0,0,1,13.06,0L411.39,343.45c3.59,2.07,3.59,5.47,0,7.54Z" style="fill:#37474f"></path><path d="M199.23,223.43A13.09,13.09,0,0,0,193.1,225L80.91,289.73c-3.61,2.08-3.61,5.46,0,7.54l22.24,12.84,96.08-61.36Z" style="fill:#263238"></path><path d="M206.24,229.86a14.51,14.51,0,0,0-13.06,0L81,294.63A6.39,6.39,0,0,0,79.28,296a7.1,7.1,0,0,0,1.63,1.27L286.14,415.76a14.45,14.45,0,0,0,13.06,0L411.39,351a6.6,6.6,0,0,0,1.69-1.35,6.55,6.55,0,0,0-1.61-1.29Z" style="fill:#455a64"></path><path d="M121.92,259.43,141.8,248c1.19-.68,1.25-1.76.13-2.4a4.59,4.59,0,0,0-4.16.08l-19.88,11.48c-1.19.68-1.25,1.76-.13,2.4A4.59,4.59,0,0,0,121.92,259.43Z" style="fill:#37474f"></path><path d="M156.06,239.75a1.23,1.23,0,0,0,0-2.33,4.47,4.47,0,0,0-4,0,1.23,1.23,0,0,0,0,2.33A4.47,4.47,0,0,0,156.06,239.75Z" style="fill:#37474f"></path><path d="M164.12,235.09a1.23,1.23,0,0,0,0-2.33,4.47,4.47,0,0,0-4,0,1.23,1.23,0,0,0,0,2.33A4.47,4.47,0,0,0,164.12,235.09Z" style="fill:#37474f"></path><path d="M99.64,272.32a1.23,1.23,0,0,0,0-2.33,4.47,4.47,0,0,0-4,0,1.23,1.23,0,0,0,0,2.33A4.47,4.47,0,0,0,99.64,272.32Z" style="fill:#37474f"></path><path d="M107.7,267.66a1.23,1.23,0,0,0,0-2.33,4.47,4.47,0,0,0-4,0,1.23,1.23,0,0,0,0,2.33A4.47,4.47,0,0,0,107.7,267.66Z" style="fill:#37474f"></path><path d="M135.77,338.8a4.59,4.59,0,0,1,2.15,3.56,1.37,1.37,0,0,1-.59,1.26l-1.51.87a1.57,1.57,0,0,1-1.55-.17l-27.94-16.14a4.59,4.59,0,0,1-2.15-3.56,1.38,1.38,0,0,1,.54-1.23c.27-.17,1.29-.75,1.55-.9a1.59,1.59,0,0,1,1.56.17Z" style="fill:#83A7DC"></path><path d="M135.77,338.8a4.59,4.59,0,0,1,2.15,3.56,1.37,1.37,0,0,1-.59,1.26l-1.51.87a1.57,1.57,0,0,1-1.55-.17l-27.94-16.14a4.59,4.59,0,0,1-2.15-3.56,1.38,1.38,0,0,1,.54-1.23c.27-.17,1.29-.75,1.55-.9a1.59,1.59,0,0,1,1.56.17Z" style="opacity:0.4"></path><path d="M134.27,339.66l-27.94-16.13c-1.19-.69-2.15-.2-2.15,1.09a4.59,4.59,0,0,0,2.15,3.56l27.94,16.14c1.19.68,2.15.19,2.15-1.09A4.6,4.6,0,0,0,134.27,339.66Z" style="fill:#83A7DC"></path><path d="M134.27,339.66l-27.94-16.13c-1.19-.69-2.15-.2-2.15,1.09a4.59,4.59,0,0,0,2.15,3.56l27.94,16.14c1.19.68,2.15.19,2.15-1.09A4.6,4.6,0,0,0,134.27,339.66Z" style="opacity:0.30000000000000004"></path><path d="M98.37,317.2a4.62,4.62,0,0,1,2.14,3.57,1.32,1.32,0,0,1-.59,1.25c-.26.14-1.23.73-1.5.88a1.6,1.6,0,0,1-1.55-.18L83.7,315.11a4.59,4.59,0,0,1-2.15-3.56,1.38,1.38,0,0,1,.54-1.23l1.55-.9a1.55,1.55,0,0,1,1.55.18Z" style="fill:#83A7DC"></path><path d="M98.37,317.2a4.62,4.62,0,0,1,2.14,3.57,1.32,1.32,0,0,1-.59,1.25c-.26.14-1.23.73-1.5.88a1.6,1.6,0,0,1-1.55-.18L83.7,315.11a4.59,4.59,0,0,1-2.15-3.56,1.38,1.38,0,0,1,.54-1.23l1.55-.9a1.55,1.55,0,0,1,1.55.18Z" style="opacity:0.4"></path><path d="M96.87,318.07,83.7,310.46c-1.19-.68-2.15-.2-2.15,1.09a4.59,4.59,0,0,0,2.15,3.56l13.17,7.61c1.19.69,2.15.2,2.15-1.09A4.59,4.59,0,0,0,96.87,318.07Z" style="fill:#83A7DC"></path><path d="M96.87,318.07,83.7,310.46c-1.19-.68-2.15-.2-2.15,1.09a4.59,4.59,0,0,0,2.15,3.56l13.17,7.61c1.19.69,2.15.2,2.15-1.09A4.59,4.59,0,0,0,96.87,318.07Z" style="opacity:0.30000000000000004"></path></g></g><g id="freepik--Message--inject-300"><g id="freepik--message--inject-300"><path d="M246.17,362.78v.81a4.49,4.49,0,0,0,2,3.51l43.51,25.12a4.47,4.47,0,0,0,4.06,0l72.05-41.6a4.47,4.47,0,0,0,2-3.51v-.81a4.49,4.49,0,0,0-2-3.51l-43.51-25.12a4.47,4.47,0,0,0-4.06,0l-72.05,41.6A4.47,4.47,0,0,0,246.17,362.78Z" style="fill:#83A7DC"></path><path d="M246.17,362.78v.81a4.49,4.49,0,0,0,2,3.51l43.51,25.12a4.47,4.47,0,0,0,4.06,0l72.05-41.6a4.47,4.47,0,0,0,2-3.51v-.81a4.49,4.49,0,0,0-2-3.51l-43.51-25.12a4.47,4.47,0,0,0-4.06,0l-72.05,41.6A4.47,4.47,0,0,0,246.17,362.78Z" style="fill:#83A7DC"></path><path d="M367.82,342.79l-43.51-25.12a4.47,4.47,0,0,0-4.06,0L293.74,333v59.74h0a4.09,4.09,0,0,0,2-.49l72.05-41.6a4.47,4.47,0,0,0,2-3.51v-.81A4.49,4.49,0,0,0,367.82,342.79Z" style="fill:#fff;opacity:0.30000000000000004"></path><path d="M367.82,342.79l-43.51-25.12a4.47,4.47,0,0,0-4.06,0L293.74,333v59.74h0a4.09,4.09,0,0,0,2-.49l72.05-41.6a4.47,4.47,0,0,0,2-3.51v-.81A4.49,4.49,0,0,0,367.82,342.79Z" style="opacity:0.15"></path><path d="M293.74,333l-45.54,26.3a4.47,4.47,0,0,0-2,3.51v.81a4.49,4.49,0,0,0,2,3.51l43.51,25.12a4.07,4.07,0,0,0,2,.49h0Z" style="fill:#fff;opacity:0.30000000000000004"></path><path d="M293.74,333l-45.54,26.3a4.47,4.47,0,0,0-2,3.51v.81a4.49,4.49,0,0,0,2,3.51l43.51,25.12a4.07,4.07,0,0,0,2,.49h0Z" style="opacity:0.2"></path><path d="M284.74,382.71l-36.54-21.1a1.23,1.23,0,0,1,0-2.34l72.05-41.6a4.47,4.47,0,0,1,4.06,0l43.51,25.12a1.23,1.23,0,0,1,0,2.34L355.87,352l-4.19,2.42-55.91,32.28a4.47,4.47,0,0,1-4.06,0l-3.54-2.05Z" style="fill:#83A7DC"></path><path d="M284.74,382.71l-36.54-21.1a1.23,1.23,0,0,1,0-2.34l72.05-41.6a4.47,4.47,0,0,1,4.06,0l43.51,25.12a1.23,1.23,0,0,1,0,2.34L355.87,352l-4.19,2.42-55.91,32.28a4.47,4.47,0,0,1-4.06,0l-3.54-2.05Z" style="fill:#fff;opacity:0.30000000000000004"></path><path d="M317.92,347.66l49.9-4.87-49.46,2.8,5.95-27.92a4.23,4.23,0,0,0-2.21-.47L312.77,355l-65.39,5.39a1.35,1.35,0,0,0,.82,1.27L301,358.54l-7.27,28.68L303,358.43h0l9-.53a4.83,4.83,0,0,0,3-1.24h0a4.83,4.83,0,0,0,1.52-2.62Z" style="opacity:0.15"></path><path d="M263,359.05l49.79-4.1,1.78-7.14,1-4,6.58-26.64a4.13,4.13,0,0,0-1.86.47l-36,20.8-36,20.8a1.45,1.45,0,0,0-.82,1.07l10-.82Z" style="fill:#fff;opacity:0.30000000000000004"></path><path d="M314,311.71c4.55-2.63,11.93-2.63,16.48,0s4.55,6.89,0,9.51-11.93,2.63-16.48,0S309.49,314.34,314,311.71Z" style="fill:#f28f8f"></path><path d="M316.52,318a.6.6,0,0,1-.34-.12.21.21,0,0,1-.09-.23l.68-3c0-.07,0-.16.08-.27a.49.49,0,0,1,.25-.27l1.66-1a.72.72,0,0,1,.37-.09.7.7,0,0,1,.37.09l8.83,5.1a.23.23,0,0,1,.15.21.25.25,0,0,1-.15.21l-1.79,1a.72.72,0,0,1-.37.09.7.7,0,0,1-.37-.09l-6-3.44-.4,1.65c0,.08-.08.15-.19.2a.84.84,0,0,1-.39.06Z" style="fill:#fafafa"></path></g><path d="M204.64,346.33l32.23-18.6,22,5.45a2.37,2.37,0,0,0,2.47-3.71l-8.26-11.12,32.22-18.61c2.38-1.38,2.38-3.63,0-5L220.85,257.5a9.64,9.64,0,0,0-8.66,0l-80.67,46.62c-2.38,1.37-2.38,3.62,0,5L196,346.33A9.57,9.57,0,0,0,204.64,346.33Z" style="fill:#fafafa"></path><path d="M164.85,297.27a25.9,25.9,0,0,1,6.05-2.58,28,28,0,0,1,5.77-1,20.49,20.49,0,0,1,5.15.31,18,18,0,0,1,4.18,1.33q2,1,4.12,2.19t3.78,2.37a8,8,0,0,1,2.3,2.42,4.23,4.23,0,0,1,.55,3A7.09,7.09,0,0,1,195,308.6a17.26,17.26,0,0,1-4.52,3.47,27,27,0,0,1-6,2.61,26.36,26.36,0,0,1-5.74,1,20.48,20.48,0,0,1-5.15-.32,17.79,17.79,0,0,1-4.19-1.32q-2-1-4.11-2.19t-3.79-2.38a7.8,7.8,0,0,1-2.29-2.41,4.25,4.25,0,0,1-.55-3,7.47,7.47,0,0,1,1.71-3.33A16.66,16.66,0,0,1,164.85,297.27Zm20.45,6.78a9.27,9.27,0,0,0-1.27-.83l-1.92-1.11L180.18,301a10.21,10.21,0,0,0-1.43-.73,8.71,8.71,0,0,0-3.49-.78,8.18,8.18,0,0,0-4.28,1.32c-1.59.92-2.36,1.74-2.3,2.47a2.89,2.89,0,0,0,1.36,2,12.65,12.65,0,0,0,1.23.85c.58.37,1.21.75,1.88,1.13s1.32.75,2,1.09a14.68,14.68,0,0,0,1.48.71,8.71,8.71,0,0,0,3.49.78,8.23,8.23,0,0,0,4.28-1.32c1.59-.92,2.36-1.74,2.29-2.48A2.84,2.84,0,0,0,185.3,304.05Zm14.23-24.82a2.42,2.42,0,0,1,.19-1.27,3.45,3.45,0,0,1,1.42-1.22l4.93-2.85a4.46,4.46,0,0,1,1.83-.61,2.71,2.71,0,0,1,1.57.29,1.23,1.23,0,0,1,.27.25,1,1,0,0,1,.18.39l5.67,50.17a2.47,2.47,0,0,1-.2,1.26,3.28,3.28,0,0,1-1.41,1.23l-4.93,2.85a4.38,4.38,0,0,1-1.83.6,2.63,2.63,0,0,1-1.57-.28,1,1,0,0,1-.28-.26,1.17,1.17,0,0,1-.18-.39Zm25.91,11.92a26.38,26.38,0,0,1,6.05-2.59,27.34,27.34,0,0,1,5.77-1,20.49,20.49,0,0,1,5.15.31,18,18,0,0,1,4.18,1.33q2,1,4.12,2.18t3.78,2.38a8,8,0,0,1,2.3,2.41,4.25,4.25,0,0,1,.55,3,7.14,7.14,0,0,1-1.75,3.31,17.48,17.48,0,0,1-4.52,3.47,26.35,26.35,0,0,1-6,2.6,25.59,25.59,0,0,1-5.73,1,20.49,20.49,0,0,1-5.15-.31,18.26,18.26,0,0,1-4.19-1.33c-1.34-.65-2.71-1.37-4.11-2.18s-2.66-1.6-3.79-2.38a8,8,0,0,1-2.29-2.42,4.21,4.21,0,0,1-.55-3,7.47,7.47,0,0,1,1.71-3.33A16.46,16.46,0,0,1,225.44,291.15Zm20.45,6.77a9.47,9.47,0,0,0-1.27-.82L242.7,296l-1.93-1.11a11.83,11.83,0,0,0-1.43-.74,9.05,9.05,0,0,0-3.49-.78,8.42,8.42,0,0,0-4.29,1.32c-1.58.92-2.35,1.75-2.29,2.48a2.89,2.89,0,0,0,1.36,2,13.11,13.11,0,0,0,1.22.86c.59.37,1.22.75,1.89,1.13s1.32.75,2,1.09,1.14.57,1.48.71a9,9,0,0,0,3.49.78,8.35,8.35,0,0,0,4.28-1.33c1.59-.91,2.35-1.74,2.29-2.47A2.88,2.88,0,0,0,245.89,297.92Z" style="fill:#83A7DC"></path></g></g><g id="freepik--Megaphone--inject-300"><g id="freepik--megaphone--inject-300"><path d="M83.75,101.58,96.87,94v60.36c0,2.27,2.63,4.54,2.63,4.54l-13.12,7.58s-2.63-2.28-2.63-4.55Z" style="fill:#37474f"></path><path d="M67.8,101.45l5.53,7,0,26.23a39.07,39.07,0,0,1-6,20.75h0l19,11a7,7,0,0,1-2.63-4.55V110.66Z" style="fill:#455a64"></path><polygon points="67.33 155.48 67.33 158.51 86.38 169.51 86.38 166.48 67.33 155.48" style="fill:#83A7DC"></polygon><polygon points="86.38 169.51 99.5 161.93 99.5 158.9 86.38 166.48 86.38 169.51" style="fill:#83A7DC"></polygon><polygon points="86.38 169.51 99.5 161.93 99.5 158.9 86.38 166.48 86.38 169.51" style="opacity:0.1"></polygon><path d="M83.15,69.71h0c-2.23-1.34-5.33-1.17-8.76.81l-.13.07C67.48,74.52,62,84,62,91.87V92c0,4,1.48,6.86,3.84,8.08h0l9.93,5.84L92.33,75.13Z" style="fill:#83A7DC"></path><path d="M83.15,69.71h0c-2.23-1.34-5.33-1.17-8.76.81l-.13.07C67.48,74.52,62,84,62,91.87V92c0,4,1.48,6.86,3.84,8.08h0l9.93,5.84L92.33,75.13Z" style="fill:#fafafa;opacity:0.8"></path><path d="M65.82,100.1h0l9.93,5.84,5.5-10.21L63.12,85.26A21.77,21.77,0,0,0,62,91.87V92C62,96.07,63.46,98.88,65.82,100.1Z" style="fill:#83A7DC;opacity:0.2"></path><path d="M104.59,77.26h0c-2.52-1.44-5.92-1.39-9.68.45-.4.19-.8.4-1.2.64s-.95.57-1.41.89A24.08,24.08,0,0,0,90.05,81a30.91,30.91,0,0,0-3.78,3.88,37,37,0,0,0-6.94,13.21,26.07,26.07,0,0,0-1,7c0,4.79,1.64,8.19,4.31,9.85l-9.49-5.47,0,0a12.23,12.23,0,0,1-5.6-10.57,25.66,25.66,0,0,1,.94-6.66,36.71,36.71,0,0,1,7-13.52,30.23,30.23,0,0,1,3.78-3.88A24,24,0,0,1,81.54,73c.47-.32.94-.62,1.41-.89s.81-.44,1.22-.63a12.16,12.16,0,0,1,10.74.18h0l.27.15.34.2Z" style="fill:#83A7DC"></path><path d="M73.13,109.41l0,0a12.23,12.23,0,0,1-5.6-10.57,25.66,25.66,0,0,1,.94-6.66l10.84,5.9a26.07,26.07,0,0,0-1,7c0,4.79,1.64,8.19,4.31,9.85Z" style="opacity:0.1"></path><path d="M109.11,87.24c0,9.83-6.89,21.77-15.4,26.68-4.27,2.48-8.15,2.69-10.94,1l-.15-.09c-2.67-1.66-4.31-5.06-4.31-9.85,0-9.82,6.89-21.77,15.4-26.68,4.24-2.45,8.09-2.69,10.88-1.09S109.11,82.32,109.11,87.24Z" style="fill:#83A7DC"></path><path d="M109.11,87.24c0,9.83-6.89,21.77-15.4,26.68-4.27,2.48-8.15,2.69-10.94,1l-.15-.09c-2.67-1.66-4.31-5.06-4.31-9.85,0-9.82,6.89-21.77,15.4-26.68,4.24-2.45,8.09-2.69,10.88-1.09S109.11,82.32,109.11,87.24Z" style="opacity:0.2"></path><path d="M156.34,84.7s-15.54,8-28.81,31a105.2,105.2,0,0,0-6.3,12.82c-6.66,16.35-6.11,27.62-6.11,27.62-4.63-11.35-10.39-23.09-20-32.08a144.75,144.75,0,0,0-11.81-9.88h0c-2.54-1.48-4-4.68-4-9.1A26.75,26.75,0,0,1,81,96a35.21,35.21,0,0,1,2.64-5.64A30.5,30.5,0,0,1,94.2,79.21c3.83-2.21,7.35-2.53,9.89-1.07h0a145,145,0,0,0,14.46,5.29C131.15,87.25,144.2,86.36,156.34,84.7Z" style="fill:#83A7DC"></path><path d="M156.34,84.7s-15.54,8-28.81,31a105.2,105.2,0,0,0-6.3,12.82c-6.66,16.35-6.11,27.62-6.11,27.62-4.63-11.35-10.39-23.09-20-32.08a144.75,144.75,0,0,0-11.81-9.88h0c-2.54-1.48-4-4.68-4-9.1A26.75,26.75,0,0,1,81,96a35.21,35.21,0,0,1,2.64-5.64A30.5,30.5,0,0,1,94.2,79.21c3.83-2.21,7.35-2.53,9.89-1.07h0a145,145,0,0,0,14.46,5.29C131.15,87.25,144.2,86.36,156.34,84.7Z" style="fill:#fafafa;opacity:0.8"></path><path d="M121.23,128.48c-6.66,16.35-6.11,27.62-6.11,27.62-4.63-11.35-10.39-23.09-20-32.08a144.75,144.75,0,0,0-11.81-9.88h0c-2.54-1.48-4-4.68-4-9.1A26.75,26.75,0,0,1,81,96C92.81,101.88,111.86,112.75,121.23,128.48Z" style="fill:#83A7DC;opacity:0.2"></path><path d="M185.62,106.87c0,10.25-3.16,21.46-8.41,31.82h0C170.48,152,160.33,163.8,149,170.36c-20.25,11.69-36.66,2.21-36.66-21.16a61.94,61.94,0,0,1,2.43-16.57A87.18,87.18,0,0,1,136.94,95q2.15-2.11,4.41-4c.63-.52,1.27-1,1.91-1.51h0c.91-.69,1.82-1.35,2.75-2S148,86.28,149,85.71C169.2,74,185.62,83.5,185.62,106.87Z" style="fill:#83A7DC"></path><path d="M177.21,138.69C170.48,152,160.33,163.8,149,170.36c-20.25,11.69-36.66,2.21-36.66-21.16a61.94,61.94,0,0,1,2.43-16.57h0c1.37,3,6.29,7.34,8.5,4.31a56,56,0,0,0-2.13,14.7c0,6.72,1.5,12.14,4.33,15.68a12,12,0,0,0,9.86,4.56c4,0,8.68-1.47,13.49-4.25,9.67-5.58,18.56-15.61,24.87-27C173.65,140.66,174.91,141.72,177.21,138.69Z" style="opacity:0.1"></path><path d="M183.11,108.18c0,10.32-3.62,22-9.46,32.48-6.31,11.36-15.2,21.39-24.87,27-4.81,2.78-9.47,4.25-13.49,4.25a12,12,0,0,1-9.86-4.56c-2.83-3.54-4.33-9-4.33-15.68a56,56,0,0,1,2.13-14.7c.51-1.9,1.12-3.8,1.81-5.7a82.39,82.39,0,0,1,4.32-9.81l1-2c.59-1.08,1.2-2.15,1.84-3.2a82.82,82.82,0,0,1,7.23-10.17l.09-.1a73.37,73.37,0,0,1,5.47-5.88q2.06-2,4.18-3.66.9-.72,1.8-1.38c.73-.53,1.47-1,2.21-1.53s1.46-.92,2.19-1.35c4.82-2.79,9.49-4.25,13.5-4.25C177.81,88,183.11,95.52,183.11,108.18Z" style="fill:#83A7DC"></path><path d="M183.11,108.18c0,10.32-3.62,22-9.46,32.48-6.31,11.36-15.2,21.39-24.87,27-4.81,2.78-9.47,4.25-13.49,4.25a12,12,0,0,1-9.86-4.56c-2.83-3.54-4.33-9-4.33-15.68a56,56,0,0,1,2.13-14.7c.51-1.9,1.12-3.8,1.81-5.7a82.39,82.39,0,0,1,4.32-9.81l1-2c.59-1.08,1.2-2.15,1.84-3.2a82.82,82.82,0,0,1,7.23-10.17l.09-.1a73.37,73.37,0,0,1,5.47-5.88q2.06-2,4.18-3.66.9-.72,1.8-1.38c.73-.53,1.47-1,2.21-1.53s1.46-.92,2.19-1.35c4.82-2.79,9.49-4.25,13.5-4.25C177.81,88,183.11,95.52,183.11,108.18Z" style="opacity:0.30000000000000004"></path><path d="M152,113.92l-12.86,24c-3.62-1.36-9.73-3.53-14.71-4.8.2-.64.42-1.26.66-1.9a81.5,81.5,0,0,1,4.32-9.81c.34-.66.69-1.31,1-2,.59-1.08,1.2-2.15,1.84-3.19a82.07,82.07,0,0,1,7.23-10.17.48.48,0,0,0,.09-.11c.39-.46.78-.92,1.17-1.36A83.45,83.45,0,0,0,152,113.92Z" style="fill:#83A7DC"></path><g style="opacity:0.6000000000000001"><path d="M152,113.92l-12.86,24c-3.62-1.36-9.73-3.53-14.71-4.8.2-.64.42-1.26.66-1.9a81.5,81.5,0,0,1,4.32-9.81c.34-.66.69-1.31,1-2,.59-1.08,1.2-2.15,1.84-3.19a82.07,82.07,0,0,1,7.23-10.17.48.48,0,0,0,.09-.11c.39-.46.78-.92,1.17-1.36A83.45,83.45,0,0,0,152,113.92Z" style="fill:#fafafa"></path></g><path d="M140.17,137.87c-2.91,0-4.64-2.35-4.64-6.28v-.12c0-6.18,4.35-13.73,9.71-16.82l.1-.06a8.41,8.41,0,0,1,4.06-1.26c2.9,0,4.64,2.35,4.64,6.29v.12c0,6.18-4.36,13.72-9.71,16.81l-.1.06a8.3,8.3,0,0,1-4.06,1.26Z" style="fill:#83A7DC"></path><g style="opacity:0.8"><path d="M140.17,137.87c-2.91,0-4.64-2.35-4.64-6.28v-.12c0-6.18,4.35-13.73,9.71-16.82l.1-.06a8.41,8.41,0,0,1,4.06-1.26c2.9,0,4.64,2.35,4.64,6.29v.12c0,6.18-4.36,13.72-9.71,16.81l-.1.06a8.3,8.3,0,0,1-4.06,1.26Z" style="fill:#fafafa"></path></g><path d="M154,70.24a2.89,2.89,0,0,1-2.89-2.89v-28a2.89,2.89,0,0,1,5.78,0v28A2.89,2.89,0,0,1,154,70.24Z" style="fill:#e0e0e0"></path><path d="M128.59,77.06a2.88,2.88,0,0,1-2.5-1.44l-14-24.22a2.89,2.89,0,0,1,5-2.9l14,24.22a2.89,2.89,0,0,1-2.51,4.34Z" style="fill:#e0e0e0"></path><path d="M102.12,211.84a2.9,2.9,0,0,1-2.5-4.34l14-24.22a2.89,2.89,0,1,1,5,2.89l-14,24.22A2.9,2.9,0,0,1,102.12,211.84Z" style="fill:#e0e0e0"></path><path d="M154,215.58a2.89,2.89,0,0,1-2.89-2.89v-28a2.89,2.89,0,1,1,5.78,0v28A2.89,2.89,0,0,1,154,215.58Z" style="fill:#e0e0e0"></path><path d="M193.48,189.44A2.89,2.89,0,0,1,191,188l-14-24.22a2.89,2.89,0,0,1,5-2.89l14,24.22a2.9,2.9,0,0,1-2.5,4.34Z" style="fill:#e0e0e0"></path><path d="M222.33,160.57a2.9,2.9,0,0,1-1.44-.38l-24.22-14a2.89,2.89,0,1,1,2.9-5l24.21,14a2.89,2.89,0,0,1-1.45,5.39Z" style="fill:#e0e0e0"></path><path d="M232.9,121.14h-28a2.89,2.89,0,1,1,0-5.78h28a2.89,2.89,0,1,1,0,5.78Z" style="fill:#e0e0e0"></path><path d="M198.12,95.69a2.89,2.89,0,0,1-1.45-5.4l24.22-14a2.89,2.89,0,1,1,2.89,5l-24.21,14A2.85,2.85,0,0,1,198.12,95.69Z" style="fill:#e0e0e0"></path><path d="M179.49,77.06A2.89,2.89,0,0,1,177,72.72L191,48.5a2.89,2.89,0,0,1,5,2.9L182,75.62A2.88,2.88,0,0,1,179.49,77.06Z" style="fill:#e0e0e0"></path></g></g></svg>