<svg xmlns="http://www.w3.org/2000/svg" viewBox="0 0 500 500"><g id="freepik--water-drop--inject-79"><path d="M365,276.79a110.4,110.4,0,1,1-220.8,0c0-34.41,43.34-91.12,74-134,23.64-33.07,36.42-57.91,36.42-57.91s13.33,25.5,37.35,59.23C322.37,186.82,365,242.73,365,276.79Z" style="fill:#83A7DC"></path><path d="M254.6,84.89s-2.68,5.21-7.85,14c-1.23,9.69,0,27.6,10.34,60.28,20.07,63.46,26.55,136-7.12,161.88-28.78,22.14-70.32,28.66-97.15-1.44A110.42,110.42,0,0,0,365,276.79c0-34.06-42.63-90-73.05-132.67C267.93,110.39,254.6,84.89,254.6,84.89Z" style="opacity:0.2"></path><path d="M247,117s-23.49,37.78-42.52,66-6.83,47.64,12.91,34S247,117,247,117Z" style="fill:#fff;opacity:0.5"></path><path d="M230.48,152.92s-14.68,23.62-26.58,41.27S199.63,224,212,215.46,230.48,152.92,230.48,152.92Z" style="fill:#fff"></path><path d="M254.6,369.62c-43.1,0-80.41-21.86-98.57-53.72a106.59,106.59,0,0,0,197.13,0C335,347.76,297.69,369.62,254.6,369.62Z" style="fill:#fff"></path><path d="M365,276.79a110.4,110.4,0,1,1-220.8,0c0-34.41,43.34-91.12,74-134,23.64-33.07,36.42-57.91,36.42-57.91s13.33,25.5,37.35,59.23C322.37,186.82,365,242.73,365,276.79Z" style="fill:none;stroke:#263238;stroke-miterlimit:10"></path></g><g id="freepik--Character--inject-79"><path d="M254.6,381.85a106.18,106.18,0,0,0,79.86-36.07,30.79,30.79,0,0,0-8.59-1.73c-6.56-.26-20.2,2.1-32.27,5s-20.2,4.46-20.2,4.46-2.1,3.41-11.8,5-15.48-2.62-24.67.79c-7,2.62-15.3,10-21.62,15.09A106.18,106.18,0,0,0,254.6,381.85Z" style="fill:#263238;stroke:#263238;stroke-miterlimit:10"></path><path d="M270.56,208.4S259,220.75,257,228.71s-4.39,19.92-8,23.1-13.14,3.59-13.94,8,2.79,10.35,4.38,11.55-5.57,5.57-4.78,8a19.72,19.72,0,0,0,3.19,5.18s-4,1.59-3.19,3.59a23.1,23.1,0,0,0,3.19,4.77s-6.2,9-4.38,13.55a11.34,11.34,0,0,0,10.75,7.17c3.19,0,11.55,2.78,15.53,6s7.57,18.72,8.77,25.49,2,11.15,0,12.74-9.16,10-7.57,13.55,11.15-6,23.9-12.35S307.2,345.81,314,345a122.05,122.05,0,0,1,12.74-.8s-7.16-19.11-1.19-32.26,18.32-21.11,20.71-41-16.73-49.78-29.07-61.73S280.91,202.82,270.56,208.4Z" style="fill:#fff;stroke:#263238;stroke-miterlimit:10"></path><line x1="270.16" y1="241.46" x2="266.18" y2="249.42" style="fill:none;stroke:#263238;stroke-miterlimit:10"></line><path d="M276.52,252.2a33.31,33.31,0,0,1-7.53-1.61c-2.81-1.17-5-2-5-2v.72c1.25,1.61,2.15,1.43,2.15,1.43s-5.2-1.43-3.05,0,4.12,1.44,7.35,2S277.77,253.81,276.52,252.2Z" style="fill:#263238"></path><path d="M266,233.57s3.4-3.23,6.63-3.23,8.78,2.87,9.67,4.3,2.33.9,0-2.33-7.34-5.91-10.39-5.91-3.22,1.43-4.3.36-4.3.18-4.12,3.76S264.34,233.39,266,233.57Z" style="fill:#263238"></path><path d="M240,268.32a41.4,41.4,0,0,1,5,3.94c1.07,1.26,2.15,1.26,4.12-.18s3.22-4.65,1.25-6.8" style="fill:none;stroke:#263238;stroke-miterlimit:10"></path><path d="M272,255.24s5.37,1.44,8.24,4.12" style="fill:none;stroke:#263238;stroke-miterlimit:10"></path><path d="M279.39,256.86s3.76,1.07,4.83,2.68" style="fill:none;stroke:#263238;stroke-miterlimit:10"></path><path d="M266,257.57s4.12-1.61,7.52.54" style="fill:none;stroke:#263238;stroke-miterlimit:10"></path><path d="M307,285.52s-.47,5,4.6,4.93" style="fill:none;stroke:#263238;stroke-miterlimit:10"></path><path d="M292.61,308c-2.39,1.32-4.27,2.25-4.27,2.25" style="fill:none;stroke:#263238;stroke-miterlimit:10"></path><path d="M307.69,295.55a43.84,43.84,0,0,1-7.7,7.89c-1.3,1-2.94,2-4.57,2.95" style="fill:none;stroke:#263238;stroke-miterlimit:10"></path><path d="M276.85,336.78c.34-1.51.68-3.11,1-4.79" style="fill:none;stroke:#263238;stroke-miterlimit:10"></path><path d="M266.58,362.42s4.47-3.72,8.86-20" style="fill:none;stroke:#263238;stroke-miterlimit:10"></path><path d="M359.34,294.65a106.66,106.66,0,0,0,1.76-19.3c0-22.21-18.79-54-40-85.06-4.36-.89-24.7-4.5-41,2.58-18.32,8-28.68,19.91-27.49,22.7s16.73-5.18,27.88-6.77,13.15-1.59,13.15-1.59-17.13,9.95-15.93,12.34,10.35,5.58,15.53,7.57,14.34,3.58,14.34,3.58-16.33,4.38-14.34,7.57,15.93.8,15.93.8-7.17,8.76-7.57,16.73,6.77,0,6.77,0a13.79,13.79,0,0,0-.79,8.76,19.18,19.18,0,0,0,3.18,7.17,39.08,39.08,0,0,1,6.77-7.17c4-3.19,15.93-2.79,15.54,8.76s-10.36,16.33-15.93,16.73l-5.58.4S310,298.81,312,304s6.77,2.39,6.77,2.39-1.2,10.35,3.58,10.35,2.39-5.18,14.34-10.35C345.37,302.61,353.64,301.15,359.34,294.65Z" style="fill:#263238;stroke:#263238;stroke-miterlimit:10"></path><path d="M219.9,287.66c-3.7,1.64-5.07,4.25-5.07,4.66s-1.1-4-1.1-10.83-.28-15.37.68-19.62,1.38-12.48.69-15.91a45.47,45.47,0,0,1-.82-5.49L200,244.18s-7.16-8.54-8.72-8.11a23.86,23.86,0,0,0-.47,4.27c0,2-1.1,10.56-1.1,10.56-.54-1.24-3-5.62-5.07-7.27s-6.72-3-9.46-.14c0,0-1.1,3.43-.42,5.21a12,12,0,0,1,.57,3c-3.81.27-7.11.62-8,1-2.34,1.1,0,5.08-1.51,9.19s-3,29.77-3,30.86.41,14.68.41,14.68l-5.43,12.45a106.71,106.71,0,0,0,24.68,33.88l11.06-35.63s13.45-6.59,16.6-8a20.24,20.24,0,0,1,8.23-1.51c2.06,0,4-4.52,5.76-8.5s4.67-8.92,5.63-10.84S223.6,286,219.9,287.66Z" style="fill:#fff;stroke:#263238;stroke-miterlimit:10"></path><path d="M214.83,292.32s-4.15,4.13-4.15,8.06" style="fill:none;stroke:#263238;stroke-miterlimit:10"></path><path d="M192.76,294.73s-7.85,2.7-11.78,10.06" style="fill:none;stroke:#263238;stroke-miterlimit:10"></path><path d="M182.45,299.89s-2.7,3.68-2.94,6.62" style="fill:none;stroke:#263238;stroke-miterlimit:10"></path><line x1="177.3" y1="302.59" x2="177.05" y2="305.78" style="fill:none;stroke:#263238;stroke-miterlimit:10"></line><path d="M177.54,310.44a18.61,18.61,0,0,0,6.63,6.38,14.5,14.5,0,0,0,9.39,1.29" style="fill:none;stroke:#263238;stroke-miterlimit:10"></path><path d="M237.7,261.15c-3.06-12.78-9.13-22.29-13.54-21.24L169.89,254c-3.87.92-5,10.24-2.43,20.8s7.72,18.37,11.6,17.45l55.51-6a3.16,3.16,0,0,0,.68-.08C239.66,285.16,240.76,273.94,237.7,261.15Z" style="fill:none;stroke:#263238;stroke-miterlimit:10"></path><path d="M232.9,285.89c-4-1.9-8.65-10.27-11.19-20.91-2.3-9.59-2.26-18.3-.23-22.5" style="fill:none;stroke:#263238;stroke-miterlimit:10"></path><path d="M221.48,277.3c-8.59-4.9-23.56-21.35-31.91-22.82a57.57,57.57,0,0,0-16.21-.25,4,4,0,0,0-.5.06c-3.87.93-5.05,9.88-2.63,20s7.52,17.54,11.4,16.61l49.42-5.73s2.95.49,3.44-1.72S230.07,282.21,221.48,277.3Z" style="fill:#fff;opacity:0.63"></path><path d="M221.48,277.3c-8.59-4.9-23.56-21.35-31.91-22.82a57.57,57.57,0,0,0-16.21-.25,4,4,0,0,0-.5.06c-3.87.93-5.05,9.88-2.63,20s7.52,17.54,11.4,16.61l49.42-5.73s2.95.49,3.44-1.72S230.07,282.21,221.48,277.3Z" style="fill:none;stroke:#83A7DC;stroke-miterlimit:10"></path><path d="M174,250.08s-4,0-6.31,1.92.55,4.25,1.65,4.25a22.68,22.68,0,0,0,8.09-3.16C179.3,251.58,175.19,250.35,174,250.08Z" style="fill:#fff;stroke:#263238;stroke-miterlimit:10"></path><path d="M211,229.64s-5.66.33-7.13,3.27,1.93,6.39,3.58,8.84,4.09,3.19,7,1.47,3.17-4.91,2.21-7.61S214.36,229.88,211,229.64Z" style="fill:#fff;stroke:#263238;stroke-miterlimit:10"></path><path d="M215.48,235.26s-4.22.55-6.09,2.06,0,3,.44,3.7,5.14-1,6-1.64S216.29,235.4,215.48,235.26Z" style="fill:#fff;stroke:#263238;stroke-miterlimit:10"></path><path d="M198.64,232.79s-6.37.33-7.35,3.28,3.68,6.38,6.14,8.83,5.4,3.2,8.34,1.48,2.46-4.91.74-7.61S202.57,233,198.64,232.79Z" style="fill:#fff;stroke:#263238;stroke-miterlimit:10"></path><path d="M205.09,238.42s-4.67.55-6.45,2.05.69,3,1.37,3.71,5.63-1,6.45-1.65S206.05,238.55,205.09,238.42Z" style="fill:#fff;stroke:#263238;stroke-miterlimit:10"></path><path d="M182.45,239.24s-6.36.33-7.35,3.28,3.69,6.38,6.14,8.83,5.4,3.19,8.35,1.47,2.45-4.9.73-7.6S186.38,239.49,182.45,239.24Z" style="fill:#fff;stroke:#263238;stroke-miterlimit:10"></path><path d="M188.9,244.86s-4.66.55-6.45,2.06.69,3,1.38,3.7,5.62-1,6.44-1.64S189.86,245,188.9,244.86Z" style="fill:#fff;stroke:#263238;stroke-miterlimit:10"></path></g></svg>